<svg width="353" height="261" viewBox="0 0 353 261" fill="none" xmlns="http://www.w3.org/2000/svg">
<mask id="path-1-inside-1_688_6" fill="white">
<path fill-rule="evenodd" clip-rule="evenodd" d="M-8.58289e-06 64.6465L-2.98783e-06 192.646L161 192.646L161 261L353 131.354L161 -5.12875e-05L161 64.6464L-8.58289e-06 64.6465Z"/>
</mask>
<path d="M-2.98783e-06 192.646L-2 192.646L-2 194.646L-2.90041e-06 194.646L-2.98783e-06 192.646ZM-8.58289e-06 64.6465L-8.67031e-06 62.6465L-2.00001 62.6465L-2.00001 64.6465L-8.58289e-06 64.6465ZM161 192.646L163 192.646L163 190.646L161 190.646L161 192.646ZM161 261L159 261L159 264.764L162.119 262.658L161 261ZM353 131.354L354.119 133.011L356.558 131.365L354.129 129.703L353 131.354ZM161 -5.12875e-05L162.129 -1.65072L159 -3.79157L159 -5.12001e-05L161 -5.12875e-05ZM161 64.6464L161 66.6464L163 66.6464L163 64.6464L161 64.6464ZM2 192.646L1.99999 64.6465L-2.00001 64.6465L-2 192.646L2 192.646ZM161 190.646L-3.07525e-06 190.646L-2.90041e-06 194.646L161 194.646L161 190.646ZM163 261L163 192.646L159 192.646L159 261L163 261ZM351.881 129.696L159.881 259.342L162.119 262.658L354.119 133.011L351.881 129.696ZM159.871 1.65062L351.871 133.004L354.129 129.703L162.129 -1.65072L159.871 1.65062ZM163 64.6464L163 -5.13749e-05L159 -5.12001e-05L159 64.6464L163 64.6464ZM-8.49546e-06 66.6465L161 66.6464L161 62.6464L-8.67031e-06 62.6465L-8.49546e-06 66.6465Z" fill="#FFE396" mask="url(#path-1-inside-1_688_6)"/>
</svg>
