<svg width="10" height="7" viewBox="0 0 10 7" fill="none" xmlns="http://www.w3.org/2000/svg">
<path d="M4.36 0.159999L3.04 4.96L2.6 3.16C3.17333 3.16 3.64 3.32667 4 3.66C4.36 3.99333 4.54 4.45333 4.54 5.04C4.54 5.61333 4.35333 6.08 3.98 6.44C3.62 6.78667 3.16667 6.96 2.62 6.96C2.06 6.96 1.59333 6.78667 1.22 6.44C0.86 6.08 0.68 5.61333 0.68 5.04C0.68 4.86667 0.693333 4.7 0.72 4.54C0.746667 4.36667 0.8 4.16667 0.88 3.94C0.96 3.71333 1.07333 3.41333 1.22 3.04L2.38 0.159999H4.36ZM9.08 0.159999L7.76 4.96L7.32 3.16C7.89333 3.16 8.36 3.32667 8.72 3.66C9.08 3.99333 9.26 4.45333 9.26 5.04C9.26 5.61333 9.07333 6.08 8.7 6.44C8.34 6.78667 7.88667 6.96 7.34 6.96C6.78 6.96 6.31333 6.78667 5.94 6.44C5.58 6.08 5.4 5.61333 5.4 5.04C5.4 4.86667 5.41333 4.7 5.44 4.54C5.46667 4.36667 5.52 4.16667 5.6 3.94C5.68 3.71333 5.79333 3.41333 5.94 3.04L7.1 0.159999H9.08Z" fill="#A22EE2"/>
</svg>
